<?xml version="1.0" encoding="utf-8"?>
<!-- Generator: Adobe Illustrator 26.0.2, SVG Export Plug-In . SVG Version: 6.00 Build 0)  -->
<svg version="1.1" id="Layer_1" xmlns="http://www.w3.org/2000/svg" xmlns:xlink="http://www.w3.org/1999/xlink" x="0px" y="0px"
	 viewBox="0 0 504.63 250.56" style="enable-background:new 0 0 504.63 250.56;" xml:space="preserve">
<g>
	<path d="M89.31,82.65h9.77V50.58H83.53L78.1,72.67h-0.14l-5.78-22.09H56.69v32.07h9.56V60.56h0.41l5.71,22.09h10.94l5.71-22.09
		h0.28V82.65z M108.92,82.65H120V50.58h-11.08V82.65z M146.57,59.6h8.81v-9.01h-28.76v9.01h8.88v23.05h11.08V59.6z M172.44,142.52
		h8.94L177.05,126h-0.21L172.44,142.52z M242.63,162.13h-33.1v-12.39h6.88v-25.8l-6.88,0.07v-12.46h33.1v12.39h-6.88v25.8h6.88
		V162.13z M206.71,162.13h-20.37l-2.2-7.57H169.9l-2.2,7.57h-19.96l18.79-50.58h21.75L206.71,162.13z M124.48,126.28
		c0,2.06,1.79,2.48,8.26,3.78c8.05,1.65,14.24,4.27,14.24,14.38c0,8.88-5.44,18.92-24.43,18.92c-7.09,0-15.35-1.17-18.24-2.13
		v-14.31c3.78,1.44,9.57,2.41,15.28,2.41c4.89,0,6.81-0.62,6.81-3.03c0-1.99-1.58-2.41-6.81-3.3c-7.29-1.24-15.55-3.1-15.55-14.87
		c0-11.01,7.36-17.89,23.54-17.89c7.43,0,14.86,1.38,17.48,2.2l-0.07,13.14c-5.37-1.17-10.12-1.86-15-1.86
		C127.57,123.73,124.48,123.94,124.48,126.28 M248.62,54.16v28.9c-6.47-3.37-20.99-6.67-37.02-6.67c-15.69,0-31.1,3.24-37.02,7.71
		l-5.37,14.73L49.81,90.84l5.37,36.98c2.94-10.36,11.73-17.57,28.77-17.57c5.44,0,11.08,0.96,13.9,1.72v14.66
		c-1.79-0.55-6.68-1.24-10.87-1.24c-7.29,0-12.73,2.61-12.73,11.22c0,9.63,6.88,11.77,13.62,11.77c3.58,0,5.71-0.21,9.98-1.24v14.31
		c-4.89,1.45-8.53,1.93-14.38,1.93c-12.38,0-20.09-3.65-24.5-9.46l5.44,37.46l76.32-15.76l-2.96,7.91
		c6.06,5.64,25.05,10.05,46.59,10.05c19.41,0,49.07-3.79,64.28-9.08v15.48l31.24-8.19l6.79-29.66h-36.17v-50.58h19.48v35.44h20.16
		l16.93-73.98L248.62,54.16z"/>
</g>
<g>
	<path d="M313.52,125.63c0-4.08,2.29-6.8,6.86-6.8c1.16,0,2.78,0.24,3.64,0.67l0.22,3.08h-0.13c-1.03-0.43-2.27-0.67-3.32-0.67
		c-1.94,0-3.32,0.86-3.32,3.56c0,2.78,1.27,3.91,3.43,3.91c1.16,0,2.32-0.24,3.32-0.7h0.11l-0.27,3.02
		c-1.03,0.49-2.78,0.73-3.78,0.73C315.28,132.43,313.52,129.46,313.52,125.63z"/>
	<path d="M326,125.76c0-4.21,2.48-6.94,7.1-6.94c4.78,0,6.53,3,6.53,6.56c0,4.18-2.21,7.04-6.94,7.04
		C327.83,132.43,326,129.49,326,125.76z M335.47,125.6c0-2.27-0.65-3.73-2.59-3.73c-1.89,0-2.75,1.27-2.75,3.78
		c0,2.51,0.86,3.81,2.67,3.81C334.69,129.46,335.47,128.08,335.47,125.6z"/>
	<path d="M345.76,119.12l0.13,1.48l0.08,0.03c0.62-1.03,1.84-1.81,3.7-1.81c1.89,0,3.16,0.67,3.83,1.97
		c1.03-1.35,2.59-1.97,4.24-1.97c3.08,0,4.48,1.84,4.48,5.05v8.26h-4v-7.83c0-1.57-0.54-2.32-1.78-2.32c-1.57,0-2.27,1.11-2.27,2.35
		v7.8h-4.02v-7.83c0-1.57-0.51-2.32-1.75-2.32c-1.57,0-2.27,1.11-2.27,2.35v7.8h-4.02v-13.01H345.76z"/>
	<path d="M368.95,119.12l0.13,1.48l0.08,0.03c0.73-1.11,1.97-1.81,3.97-1.81c2.75,0,5.18,1.59,5.18,6.4c0,4.37-2.21,7.21-5.91,7.21
		c-1.29,0-2.48-0.35-3.1-0.78v5.16h-4v-17.68H368.95z M374.16,125.36c0-2.4-0.81-3.43-2.48-3.43c-1.43,0-2.38,0.81-2.38,2.24v4.62
		c0.32,0.3,1.16,0.67,2.05,0.67C373.3,129.46,374.16,128.08,374.16,125.36z"/>
	<path d="M380.73,127.46v-8.34h4v7.8c0,1.59,0.46,2.35,1.92,2.35c1.78,0,2.32-1.11,2.32-2.38v-7.77h4.02v13.01h-3.64l-0.13-1.48
		h-0.08c-0.62,1-1.81,1.78-3.81,1.78C382.02,132.43,380.73,130.62,380.73,127.46z"/>
	<path d="M396.84,128.14v-6.21h-2.11v-2.81h2.11v-3.1l4-0.92v4.02h3.24l0.22,2.81h-3.46v5.59c0,1.54,0.57,1.84,1.65,1.84
		c0.62,0,1.46-0.16,2.05-0.38h0.13l-0.38,2.97c-0.67,0.27-2.13,0.49-3.16,0.49C398.3,132.43,396.84,131.13,396.84,128.14z"/>
	<path d="M405.84,125.65c0-4.67,2.86-6.83,6.53-6.83c4.18,0,5.78,2.46,5.78,6.05c0,0.49,0,1.21-0.05,1.7h-8.1
		c0.11,1.62,0.97,2.81,3.51,2.81c1.29,0,3.13-0.4,4.08-0.84h0.14l-0.35,3.02c-0.86,0.4-2.56,0.86-4.53,0.86
		C407.81,132.43,405.84,129.68,405.84,125.65z M412.31,121.52c-1.3,0-2.29,0.84-2.35,2.67h4.43
		C414.42,122.5,413.88,121.52,412.31,121.52z"/>
	<path d="M420.2,130.11c0-1.54,0.97-2.38,2.51-2.38c1.7,0,2.56,0.86,2.56,2.35c0,1.57-0.89,2.35-2.56,2.35
		C421.14,132.43,420.2,131.59,420.2,130.11z"/>
	<path d="M313.52,155.63c0-4.08,2.29-6.8,6.86-6.8c1.16,0,2.78,0.24,3.64,0.67l0.22,3.08h-0.13c-1.03-0.43-2.27-0.67-3.32-0.67
		c-1.94,0-3.32,0.86-3.32,3.56c0,2.78,1.27,3.91,3.43,3.91c1.16,0,2.32-0.24,3.32-0.7h0.11l-0.27,3.02
		c-1.03,0.49-2.78,0.73-3.78,0.73C315.28,162.43,313.52,159.46,313.52,155.63z"/>
	<path d="M326,155.76c0-4.21,2.48-6.94,7.1-6.94c4.78,0,6.53,3,6.53,6.56c0,4.18-2.21,7.04-6.94,7.04
		C327.83,162.43,326,159.49,326,155.76z M335.47,155.6c0-2.27-0.65-3.73-2.59-3.73c-1.89,0-2.75,1.27-2.75,3.78s0.86,3.81,2.67,3.81
		C334.69,159.46,335.47,158.08,335.47,155.6z"/>
	<path d="M340.6,145.56v-2.83h5.56v19.41h-4v-16.57H340.6z"/>
	<path d="M347.84,145.56v-2.83h5.56v19.41h-4v-16.57H347.84z"/>
	<path d="M355.72,158.6c0-3.1,2.27-3.97,5.24-4.16l2.59-0.19v-0.7c0-1.51-0.86-1.7-2.21-1.7c-1.27,0-3,0.35-4.24,0.7h-0.11
		l0.19-3.05c1.13-0.35,3.29-0.67,4.97-0.67c3.37,0,5.34,1.03,5.34,4.94v4.54c0,0.89,0.19,1.13,0.67,1.13c0.27,0,0.59-0.05,0.86-0.11
		l-0.16,2.75c-0.41,0.16-1.21,0.35-2.21,0.35c-1.35,0-2.29-0.65-2.62-1.78c-0.7,1.03-2.05,1.78-4.1,1.78
		C356.88,162.43,355.72,160.7,355.72,158.6z M363.58,157.76v-1.24l-1.7,0.08c-1.32,0.08-2.16,0.54-2.16,1.67
		c0,0.92,0.43,1.46,1.65,1.46C362.77,159.73,363.58,158.92,363.58,157.76z"/>
	<path d="M374.62,161.08l-0.19,1.05H371v-19.41h4.02v7.58l0.08,0.03c0.76-0.97,2.05-1.51,3.75-1.51c2.73,0,5.16,1.62,5.16,6.4
		c0,4.4-2.19,7.21-5.91,7.21C376.81,162.43,375.48,161.97,374.62,161.08z M379.89,155.22c0-2.38-0.81-3.43-2.51-3.43
		c-1.43,0-2.35,0.81-2.35,2.24v4.53c0.32,0.35,1.16,0.78,2.05,0.78C379.02,159.35,379.89,157.98,379.89,155.22z"/>
	<path d="M385.86,155.76c0-4.21,2.48-6.94,7.1-6.94c4.78,0,6.53,3,6.53,6.56c0,4.18-2.21,7.04-6.94,7.04
		C387.69,162.43,385.86,159.49,385.86,155.76z M395.33,155.6c0-2.27-0.65-3.73-2.59-3.73c-1.89,0-2.75,1.27-2.75,3.78
		s0.86,3.81,2.67,3.81C394.55,159.46,395.33,158.08,395.33,155.6z"/>
	<path d="M405.46,149.12l0.16,1.78l0.05,0.03c0.49-1.11,1.86-2.13,3.43-2.13c0.35,0,0.76,0.05,1.13,0.19l0.32,3.91h-0.14
		c-0.7-0.16-1.35-0.24-1.89-0.24c-1.51,0-2.4,0.65-2.54,1.7v7.77h-4.02v-13.01H405.46z"/>
	<path d="M410.97,158.6c0-3.1,2.27-3.97,5.24-4.16l2.59-0.19v-0.7c0-1.51-0.86-1.7-2.21-1.7c-1.27,0-3,0.35-4.24,0.7h-0.11
		l0.19-3.05c1.13-0.35,3.29-0.67,4.97-0.67c3.37,0,5.34,1.03,5.34,4.94v4.54c0,0.89,0.19,1.13,0.67,1.13c0.27,0,0.59-0.05,0.86-0.11
		l-0.16,2.75c-0.41,0.16-1.21,0.35-2.21,0.35c-1.35,0-2.29-0.65-2.62-1.78c-0.7,1.03-2.05,1.78-4.1,1.78
		C412.13,162.43,410.97,160.7,410.97,158.6z M418.82,157.76v-1.24l-1.7,0.08c-1.32,0.08-2.16,0.54-2.16,1.67
		c0,0.92,0.43,1.46,1.65,1.46C418.01,159.73,418.82,158.92,418.82,157.76z"/>
	<path d="M426.68,158.14v-6.21h-2.11v-2.81h2.11v-3.1l4-0.92v4.02h3.24l0.22,2.81h-3.46v5.59c0,1.54,0.57,1.84,1.65,1.84
		c0.62,0,1.46-0.16,2.05-0.38h0.13l-0.38,2.97c-0.67,0.27-2.13,0.49-3.16,0.49C428.14,162.43,426.68,161.13,426.68,158.14z"/>
	<path d="M435.67,155.65c0-4.67,2.86-6.83,6.53-6.83c4.18,0,5.78,2.46,5.78,6.05c0,0.49,0,1.21-0.05,1.7h-8.1
		c0.11,1.62,0.97,2.81,3.51,2.81c1.29,0,3.13-0.4,4.08-0.84h0.14l-0.35,3.02c-0.86,0.41-2.56,0.86-4.53,0.86
		C437.64,162.43,435.67,159.68,435.67,155.65z M442.15,151.52c-1.3,0-2.29,0.84-2.35,2.67h4.43
		C444.25,152.5,443.71,151.52,442.15,151.52z"/>
	<path d="M450.03,160.11c0-1.54,0.97-2.38,2.51-2.38c1.7,0,2.56,0.86,2.56,2.35c0,1.57-0.89,2.35-2.56,2.35
		C450.98,162.43,450.03,161.59,450.03,160.11z"/>
	<path d="M313.52,185.63c0-4.08,2.29-6.8,6.86-6.8c1.16,0,2.78,0.24,3.64,0.67l0.22,3.08h-0.13c-1.03-0.43-2.27-0.67-3.32-0.67
		c-1.94,0-3.32,0.86-3.32,3.56c0,2.78,1.27,3.91,3.43,3.91c1.16,0,2.32-0.24,3.32-0.7h0.11l-0.27,3.02
		c-1.03,0.49-2.78,0.73-3.78,0.73C315.28,192.43,313.52,189.46,313.52,185.63z"/>
	<path d="M330.15,179.12l0.16,1.78l0.05,0.03c0.49-1.11,1.86-2.13,3.43-2.13c0.35,0,0.76,0.05,1.13,0.19l0.32,3.91h-0.14
		c-0.7-0.16-1.35-0.24-1.89-0.24c-1.51,0-2.4,0.65-2.54,1.7v7.77h-4.02v-13.01H330.15z"/>
	<path d="M336.26,185.65c0-4.67,2.86-6.83,6.53-6.83c4.18,0,5.78,2.46,5.78,6.05c0,0.49,0,1.21-0.05,1.7h-8.1
		c0.11,1.62,0.97,2.81,3.51,2.81c1.29,0,3.13-0.4,4.08-0.84h0.14l-0.35,3.02c-0.86,0.41-2.56,0.86-4.53,0.86
		C338.23,192.43,336.26,189.68,336.26,185.65z M342.73,181.52c-1.3,0-2.29,0.84-2.35,2.67h4.43
		C344.84,182.5,344.3,181.52,342.73,181.52z"/>
	<path d="M350.16,188.6c0-3.1,2.27-3.97,5.24-4.16l2.59-0.19v-0.7c0-1.51-0.86-1.7-2.21-1.7c-1.27,0-3,0.35-4.24,0.7h-0.11
		l0.19-3.05c1.13-0.35,3.29-0.67,4.97-0.67c3.37,0,5.34,1.03,5.34,4.94v4.54c0,0.89,0.19,1.13,0.67,1.13c0.27,0,0.59-0.05,0.86-0.11
		l-0.16,2.75c-0.41,0.16-1.21,0.35-2.21,0.35c-1.35,0-2.29-0.65-2.62-1.78c-0.7,1.03-2.05,1.78-4.1,1.78
		C351.32,192.43,350.16,190.7,350.16,188.6z M358.02,187.76v-1.24l-1.7,0.08c-1.32,0.08-2.16,0.54-2.16,1.67
		c0,0.92,0.43,1.46,1.65,1.46C357.21,189.73,358.02,188.92,358.02,187.76z"/>
	<path d="M365.87,188.14v-6.21h-2.11v-2.81h2.11v-3.1l4-0.92v4.02h3.24l0.22,2.81h-3.46v5.59c0,1.54,0.57,1.84,1.65,1.84
		c0.62,0,1.46-0.16,2.05-0.38h0.13l-0.38,2.97c-0.67,0.27-2.13,0.49-3.16,0.49C367.33,192.43,365.87,191.13,365.87,188.14z"/>
	<path d="M374.87,185.65c0-4.67,2.86-6.83,6.53-6.83c4.18,0,5.78,2.46,5.78,6.05c0,0.49,0,1.21-0.05,1.7h-8.1
		c0.11,1.62,0.97,2.81,3.51,2.81c1.29,0,3.13-0.4,4.08-0.84h0.14l-0.35,3.02c-0.86,0.41-2.56,0.86-4.53,0.86
		C376.84,192.43,374.87,189.68,374.87,185.65z M381.35,181.52c-1.3,0-2.29,0.84-2.35,2.67h4.43
		C383.45,182.5,382.91,181.52,381.35,181.52z"/>
	<path d="M389.23,190.11c0-1.54,0.97-2.38,2.51-2.38c1.7,0,2.56,0.86,2.56,2.35c0,1.57-0.89,2.35-2.56,2.35
		C390.18,192.43,389.23,191.59,389.23,190.11z"/>
</g>
</svg>
